<svg width="20" height="20" viewBox="0 0 20 20" fill="none" xmlns="http://www.w3.org/2000/svg">
<g id="bell-01">
<path id="Icon" d="M7.79515 17.5001C8.38276 18.0187 9.15463 18.3334 10 18.3334C10.8454 18.3334 11.6172 18.0187 12.2049 17.5001M15 6.66675C15 5.34067 14.4732 4.0689 13.5355 3.13121C12.5979 2.19353 11.3261 1.66675 10 1.66675C8.67392 1.66675 7.40215 2.19353 6.46447 3.13121C5.52678 4.0689 5 5.34067 5 6.66675C5 9.2419 4.35039 11.005 3.62472 12.1713C3.0126 13.155 2.70655 13.6468 2.71777 13.784C2.7302 13.936 2.76238 13.9939 2.88481 14.0847C2.99538 14.1667 3.49382 14.1667 4.49071 14.1667H15.5093C16.5062 14.1667 17.0046 14.1667 17.1152 14.0847C17.2376 13.9939 17.2698 13.936 17.2822 13.784C17.2935 13.6468 16.9874 13.155 16.3753 12.1713C15.6496 11.005 15 9.2419 15 6.66675Z" stroke="#667085" stroke-width="1.66667" stroke-linecap="round" stroke-linejoin="round"/>
</g>
</svg>
