<svg width="20" height="20" viewBox="0 0 20 20" fill="none" xmlns="http://www.w3.org/2000/svg">
<g id="Group">
<path id="Vector" d="M4.4546 9.74995C4.4546 12.6697 6.82975 15.0449 9.74952 15.0449C12.6693 15.0449 15.0444 12.6697 15.0444 9.74995C15.0444 6.83018 12.6693 4.45502 9.74952 4.45502C6.82975 4.45502 4.4546 6.83018 4.4546 9.74995ZM5.34025 9.74995C5.34025 7.31886 7.31827 5.34068 9.74952 5.34068C12.1806 5.34068 14.1588 7.31886 14.1588 9.74995C14.1588 12.181 12.1806 14.1592 9.74952 14.1592C7.31844 14.1592 5.34025 12.181 5.34025 9.74995Z" fill="#E62E05" stroke="#E62E05" stroke-width="0.319444"/>
<path id="Vector_2" d="M7.29346 7.72783C7.29346 8.41339 7.85093 8.97085 8.53648 8.97085C9.22204 8.97085 9.77951 8.41339 9.77951 7.72783C9.77951 7.04227 9.22204 6.48481 8.53648 6.48481C7.85093 6.48481 7.29346 7.04227 7.29346 7.72783ZM8.17899 7.72783C8.17899 7.53085 8.33951 7.37034 8.53648 7.37034C8.73346 7.37034 8.89397 7.53085 8.89397 7.72783C8.89397 7.92481 8.73346 8.08532 8.53648 8.08532C8.33951 8.08532 8.17899 7.92481 8.17899 7.72783Z" fill="#E62E05" stroke="#E62E05" stroke-width="0.319444"/>
<path id="Vector_3" d="M10.5282 9.34502C10.5282 10.0306 11.0857 10.588 11.7712 10.588C12.4568 10.588 13.0142 10.0306 13.0142 9.34502C13.0142 8.65946 12.4568 8.102 11.7712 8.102C11.0857 8.102 10.5282 8.65946 10.5282 9.34502ZM11.4137 9.34502C11.4137 9.14804 11.5742 8.98753 11.7712 8.98753C11.9682 8.98753 12.1287 9.14804 12.1287 9.34502C12.1287 9.542 11.9682 9.70251 11.7712 9.70251C11.5742 9.70251 11.4137 9.542 11.4137 9.34502Z" fill="#E62E05" stroke="#E62E05" stroke-width="0.319444"/>
<path id="Vector_4" d="M7.69782 11.3665C7.69782 12.0521 8.25528 12.6095 8.94084 12.6095C9.6264 12.6095 10.1839 12.0521 10.1839 11.3665C10.1839 10.6809 9.6264 10.1235 8.94084 10.1235C8.25528 10.1235 7.69782 10.6809 7.69782 11.3665ZM8.58335 11.3665C8.58335 11.1695 8.74386 11.009 8.94084 11.009C9.13782 11.009 9.29833 11.1695 9.29833 11.3665C9.29833 11.5635 9.13782 11.724 8.94084 11.724C8.74386 11.724 8.58335 11.5635 8.58335 11.3665Z" fill="#E62E05" stroke="#E62E05" stroke-width="0.319444"/>
<path id="Vector_5" d="M8.09376 1.66257C8.09376 2.57572 8.83642 3.31836 9.74955 3.31836C10.6627 3.31836 11.4053 2.57572 11.4053 1.66257C11.4053 0.749425 10.6627 0.00678176 9.74955 0.00678176C8.8364 0.00678176 8.09376 0.749425 8.09376 1.66257ZM8.97929 1.66266C8.97929 1.23811 9.32498 0.892399 9.74955 0.892399C10.1742 0.892399 10.5198 1.2381 10.5198 1.66266C10.5198 2.08722 10.1742 2.43292 9.74955 2.43292C9.325 2.43292 8.97929 2.08721 8.97929 1.66266Z" fill="#E62E05" stroke="#E62E05" stroke-width="0.319444"/>
<path id="Vector_6" d="M9.30683 4.89756C9.30683 5.14211 9.50503 5.34032 9.74959 5.34032C9.99414 5.34032 10.1923 5.14212 10.1923 4.89756V2.87581C10.1923 2.63126 9.99414 2.43305 9.74959 2.43305C9.50504 2.43305 9.30683 2.63125 9.30683 2.87581V4.89756Z" fill="#E62E05" stroke="#E62E05" stroke-width="0.319444"/>
<path id="Vector_7" d="M8.09376 17.8374C8.09376 18.7505 8.83642 19.4932 9.74955 19.4932C10.6627 19.4932 11.4053 18.7505 11.4053 17.8374C11.4053 16.9242 10.6627 16.1816 9.74955 16.1816C8.8364 16.1816 8.09376 16.9242 8.09376 17.8374ZM8.97929 17.8375C8.97929 17.4129 9.32497 17.0672 9.74955 17.0672C10.1742 17.0672 10.5198 17.4128 10.5198 17.8375C10.5198 18.2621 10.1742 18.6077 9.74955 18.6077C9.32499 18.6077 8.97929 18.2621 8.97929 17.8375Z" fill="#E62E05" stroke="#E62E05" stroke-width="0.319444"/>
<path id="Vector_8" d="M9.30683 16.6222C9.30683 16.8667 9.50503 17.0649 9.74959 17.0649C9.99414 17.0649 10.1923 16.8667 10.1923 16.6222V14.6004C10.1923 14.3559 9.99414 14.1577 9.74959 14.1577C9.50504 14.1577 9.30683 14.3559 9.30683 14.6004V16.6222Z" fill="#E62E05" stroke="#E62E05" stroke-width="0.319444"/>
<path id="Vector_9" d="M13.8121 4.03074C13.8121 4.94388 14.5547 5.68653 15.4679 5.68653C16.381 5.68653 17.1237 4.94394 17.1237 4.03074C17.1237 3.11759 16.381 2.37495 15.4679 2.37495C14.5547 2.37495 13.8121 3.11761 13.8121 4.03074ZM14.6976 4.03082C14.6976 3.60626 15.0432 3.26056 15.4679 3.26056C15.8924 3.26056 16.2381 3.60626 16.2381 4.03082C16.2381 4.45538 15.8925 4.80108 15.4679 4.80108C15.0433 4.80108 14.6976 4.45539 14.6976 4.03082Z" fill="#E62E05" stroke="#E62E05" stroke-width="0.319444"/>
<path id="Vector_10" d="M12.8673 6.63157L12.8673 6.63156C12.6945 6.4587 12.6944 6.17831 12.8674 6.00545L12.8673 6.63157ZM12.8673 6.63157C12.9538 6.71798 13.0674 6.76123 13.1804 6.76123C13.2935 6.76123 13.4071 6.71801 13.4934 6.63156L12.8673 6.63157ZM14.297 4.57591L12.8675 6.00538L14.9231 4.57591C14.7503 4.40298 14.4699 4.40304 14.297 4.5759C14.297 4.5759 14.297 4.5759 14.297 4.57591Z" fill="#E62E05" stroke="#E62E05" stroke-width="0.319444"/>
<path id="Vector_11" d="M2.3755 15.4677C2.3755 16.3809 3.11816 17.1235 4.03128 17.1235C4.94451 17.1235 5.68707 16.3809 5.68707 15.4677C5.68707 14.5546 4.94441 13.812 4.03128 13.812C3.11814 13.812 2.3755 14.5546 2.3755 15.4677ZM3.26103 15.4678C3.26103 15.0432 3.60671 14.6976 4.03128 14.6976C4.4559 14.6976 4.80154 15.0432 4.80154 15.4678C4.80154 15.8924 4.45586 16.2381 4.03128 16.2381C3.60673 16.2381 3.26103 15.8925 3.26103 15.4678Z" fill="#E62E05" stroke="#E62E05" stroke-width="0.319444"/>
<path id="Vector_12" d="M4.57591 14.9231L4.57591 14.9231C4.40301 14.7502 4.40301 14.4698 4.57591 14.2969C4.57591 14.2969 4.57591 14.2969 4.57591 14.2969L6.00545 12.8674L6.00548 12.8673C6.17835 12.6946 6.45872 12.6945 6.63156 12.8674C6.80445 13.0403 6.80445 13.3206 6.63156 13.4935C6.63156 13.4935 6.63156 13.4935 6.63156 13.4935L5.20201 14.9231C5.11571 15.0094 5.00213 15.0527 4.889 15.0528L4.57591 14.9231ZM4.57591 14.9231C4.66234 15.0095 4.77593 15.0527 4.88899 15.0528L4.57591 14.9231Z" fill="#E62E05" stroke="#E62E05" stroke-width="0.319444"/>
<path id="Vector_13" d="M16.1816 9.74949C16.1816 10.6626 16.9242 11.4053 17.8374 11.4053C18.7505 11.4053 19.4932 10.6626 19.4932 9.74949C19.4932 8.83634 18.7505 8.0937 17.8374 8.0937C16.9242 8.0937 16.1816 8.83634 16.1816 9.74949ZM17.0671 9.74957C17.0671 9.32501 17.4128 8.97931 17.8374 8.97931C18.262 8.97931 18.6076 9.325 18.6076 9.74957C18.6076 10.1742 18.262 10.5198 17.8374 10.5198C17.4128 10.5198 17.0671 10.1742 17.0671 9.74957Z" fill="#E62E05" stroke="#E62E05" stroke-width="0.319444"/>
<path id="Vector_14" d="M14.6017 10.1916H16.6234C16.868 10.1916 17.0662 9.99341 17.0662 9.74886C17.0662 9.5043 16.868 9.3061 16.6234 9.3061H14.6017C14.3571 9.3061 14.1589 9.5043 14.1589 9.74886C14.1589 9.99341 14.3571 10.1916 14.6017 10.1916Z" fill="#E62E05" stroke="#E62E05" stroke-width="0.319444"/>
<path id="Vector_15" d="M0.00690383 9.74949C0.00690383 10.6626 0.749566 11.4053 1.66269 11.4053C2.57584 11.4053 3.31848 10.6626 3.31848 9.74949C3.31848 8.83634 2.57584 8.0937 1.66269 8.0937C0.749547 8.0937 0.00690383 8.83634 0.00690383 9.74949ZM0.892435 9.74957C0.892435 9.32502 1.23813 8.97931 1.66269 8.97931C2.08724 8.97931 2.43295 9.32501 2.43295 9.74957C2.43295 10.1742 2.08725 10.5198 1.66269 10.5198C1.23813 10.5198 0.892435 10.1742 0.892435 9.74957Z" fill="#E62E05" stroke="#E62E05" stroke-width="0.319444"/>
<path id="Vector_16" d="M2.87569 10.1916H4.89744C5.14199 10.1916 5.34019 9.99341 5.34019 9.74886C5.34019 9.5043 5.142 9.3061 4.89744 9.3061H2.87569C2.63113 9.3061 2.43293 9.5043 2.43293 9.74886C2.43293 9.99341 2.63113 10.1916 2.87569 10.1916Z" fill="#E62E05" stroke="#E62E05" stroke-width="0.319444"/>
<path id="Vector_17" d="M12.8674 13.4935L12.8674 13.4935C12.6945 13.3207 12.6944 13.0403 12.8673 12.8674L12.8674 13.4935ZM12.8674 13.4935L14.2969 14.923C14.2969 14.923 14.297 14.9231 14.297 14.9231M12.8674 13.4935L14.297 14.9231M14.923 14.2969L14.923 14.2969C15.0959 14.4698 15.0959 14.7502 14.9231 14.923L14.923 14.2969ZM14.923 14.2969L13.4934 12.8674C13.4934 12.8674 13.4934 12.8673 13.4934 12.8673M14.923 14.2969L13.4934 12.8673M14.297 14.9231C14.3834 15.0095 14.497 15.0527 14.61 15.0527M14.297 14.9231L14.61 15.0527M14.61 15.0527C14.7231 15.0527 14.8367 15.0094 14.9231 14.923L14.61 15.0527ZM13.4934 12.8673C13.3205 12.6945 13.0402 12.6946 12.8673 12.8674L13.4934 12.8673Z" fill="#E62E05" stroke="#E62E05" stroke-width="0.319444"/>
<path id="Vector_18" d="M2.3755 4.03074C2.3755 4.94388 3.11816 5.68653 4.03128 5.68653C4.9445 5.68653 5.68707 4.94393 5.68707 4.03074C5.68707 3.11759 4.94441 2.37495 4.03128 2.37495C3.11814 2.37495 2.3755 3.11761 2.3755 4.03074ZM3.26103 4.03082C3.26103 3.60627 3.60672 3.26056 4.03128 3.26056C4.4559 3.26056 4.80154 3.60625 4.80154 4.03082C4.80154 4.45537 4.45585 4.80108 4.03128 4.80108C3.60673 4.80108 3.26103 4.45539 3.26103 4.03082Z" fill="#E62E05" stroke="#E62E05" stroke-width="0.319444"/>
<path id="Vector_19" d="M6.00534 6.63157L6.00533 6.63156L4.57578 5.20201C4.40292 5.02915 4.40286 4.74876 4.57578 4.57591L6.00534 6.63157ZM6.00534 6.63157C6.09176 6.71798 6.20535 6.76123 6.31841 6.76123L6.00534 6.63157ZM5.20189 4.57591C5.02905 4.40299 4.74869 4.40304 4.57582 4.57587L6.5185 6.51862L6.6314 6.6316C6.63143 6.63156 6.63147 6.63153 6.63151 6.63149C6.80436 6.45863 6.80428 6.17829 6.63144 6.00545L5.20193 4.57594C5.20192 4.57593 5.2019 4.57592 5.20189 4.57591Z" fill="#E62E05" stroke="#E62E05" stroke-width="0.319444"/>
</g>
</svg>
