<svg width="64" height="64" viewBox="0 0 64 64" fill="none" xmlns="http://www.w3.org/2000/svg">
<g id="Featured icon">
<rect x="4" y="4" width="56" height="56" rx="28" fill="#F9FAFB"/>
<path id="Briefcase" d="M20.875 32.2524L20.875 32.2523L20.8871 26.5026C20.8871 26.5026 20.8871 26.5025 20.8871 26.5025L20.8871 26.5023L21.0121 26.5026C21.0121 25.837 21.5488 25.295 22.2087 25.295L20.875 32.2524ZM20.875 32.2524C20.8747 32.4861 21.0065 32.7004 21.2159 32.803L21.2159 32.8031M20.875 32.2524L21.2159 32.8031M21.2159 32.8031C21.4481 32.9168 21.6859 33.0225 21.9236 33.126M21.2159 32.8031L21.9236 33.126M21.9236 33.126V40.8682C21.9236 41.6022 22.5149 42.2019 23.2448 42.2019H41.0629C41.7929 42.2019 42.3841 41.6025 42.3841 40.8682V33.0065L21.9236 33.126ZM28.3162 23.6695V25.1701L43.4212 26.5036C43.4211 25.7693 42.8298 25.1701 42.1 25.1701L35.992 25.17V23.6694C35.992 22.6811 35.1961 21.875 34.215 21.875L30.0932 21.8751C29.112 21.8751 28.3162 22.6812 28.3162 23.6695ZM43.4327 32.103L43.4212 26.5039L43.3077 32.1033L43.4327 32.103V32.103ZM22.0987 26.5041V26.5038C22.0987 26.4434 22.1514 26.3918 22.2088 26.3918H42.1001C42.1568 26.3918 42.2097 26.4428 42.2097 26.5046V26.5048L42.2206 31.731C40.0237 32.8357 37.4093 33.4943 34.4416 33.6971C34.4362 33.1448 33.9903 32.6953 33.4399 32.6953H30.8687C30.3146 32.6953 29.8664 33.1505 29.8664 33.7072V33.7084C26.9521 33.5259 24.3381 32.9087 22.0876 31.8669L22.0987 26.5041ZM29.5278 23.6694C29.5278 23.3524 29.7829 23.0967 30.0932 23.0967H34.215C34.519 23.0967 34.7804 23.359 34.7804 23.6694V25.17H29.5278V23.6694ZM41.1727 40.8681C41.1727 40.9266 41.1178 40.9801 41.0631 40.9801H23.245C23.1881 40.9801 23.1354 40.9288 23.1354 40.8681L23.1353 33.6084C25.1654 34.3412 27.4194 34.7859 29.8664 34.933V35.4891C29.8664 36.0457 30.3147 36.5006 30.8686 36.5006H33.4397C33.9935 36.5006 34.4414 36.0454 34.4414 35.4891V34.9251C36.9183 34.7628 39.1727 34.2935 41.1725 33.5237L41.1727 40.8681ZM31.0779 35.2787V33.9167H33.2299V35.2787H31.0779Z" fill="#475467" stroke="#475467" stroke-width="0.25"/>
<rect x="4" y="4" width="56" height="56" rx="28" stroke="#F2F4F7" stroke-width="8"/>
</g>
</svg>
