<svg width="20" height="20" viewBox="0 0 20 20" fill="none" xmlns="http://www.w3.org/2000/svg">
<g id="copy-07" clip-path="url(#clip0_245_3483)">
<path id="Icon" d="M8.75 1.66932C8.18746 1.67695 7.84975 1.70951 7.57668 1.84865C7.26308 2.00844 7.00811 2.2634 6.84832 2.57701C6.70919 2.85007 6.67662 3.18778 6.66899 3.75033M16.25 1.66932C16.8125 1.67695 17.1503 1.70951 17.4233 1.84865C17.7369 2.00844 17.9919 2.2634 18.1517 2.57701C18.2908 2.85007 18.3234 3.18778 18.331 3.75032M18.331 11.2503C18.3234 11.8129 18.2908 12.1506 18.1517 12.4236C17.9919 12.7372 17.7369 12.9922 17.4233 13.152C17.1503 13.2911 16.8125 13.3237 16.25 13.3313M18.3333 6.66699V8.33365M11.6667 1.66699H13.3333M4.33333 18.3337H10.6667C11.6001 18.3337 12.0668 18.3337 12.4233 18.152C12.7369 17.9922 12.9919 17.7372 13.1517 17.4236C13.3333 17.0671 13.3333 16.6004 13.3333 15.667V9.33366C13.3333 8.40024 13.3333 7.93353 13.1517 7.57701C12.9919 7.2634 12.7369 7.00844 12.4233 6.84865C12.0668 6.66699 11.6001 6.66699 10.6667 6.66699H4.33333C3.39991 6.66699 2.9332 6.66699 2.57668 6.84865C2.26308 7.00844 2.00811 7.2634 1.84832 7.57701C1.66666 7.93353 1.66666 8.40024 1.66666 9.33366V15.667C1.66666 16.6004 1.66666 17.0671 1.84832 17.4236C2.00811 17.7372 2.26308 17.9922 2.57668 18.152C2.9332 18.3337 3.39991 18.3337 4.33333 18.3337Z" stroke="#667085" stroke-width="1.66667" stroke-linecap="round" stroke-linejoin="round"/>
</g>
<defs>
<clipPath id="clip0_245_3483">
<rect width="20" height="20" fill="white"/>
</clipPath>
</defs>
</svg>
