<svg width="20" height="20" viewBox="0 0 20 20" fill="none" xmlns="http://www.w3.org/2000/svg">
<g id="dots-vertical">
<g id="Icon">
<path d="M9.99996 10.834C10.4602 10.834 10.8333 10.4609 10.8333 10.0007C10.8333 9.54041 10.4602 9.16732 9.99996 9.16732C9.53972 9.16732 9.16663 9.54041 9.16663 10.0007C9.16663 10.4609 9.53972 10.834 9.99996 10.834Z" stroke="#98A2B3" stroke-width="1.66667" stroke-linecap="round" stroke-linejoin="round"/>
<path d="M9.99996 5.00065C10.4602 5.00065 10.8333 4.62755 10.8333 4.16732C10.8333 3.70708 10.4602 3.33398 9.99996 3.33398C9.53972 3.33398 9.16663 3.70708 9.16663 4.16732C9.16663 4.62755 9.53972 5.00065 9.99996 5.00065Z" stroke="#98A2B3" stroke-width="1.66667" stroke-linecap="round" stroke-linejoin="round"/>
<path d="M9.99996 16.6673C10.4602 16.6673 10.8333 16.2942 10.8333 15.834C10.8333 15.3737 10.4602 15.0007 9.99996 15.0007C9.53972 15.0007 9.16663 15.3737 9.16663 15.834C9.16663 16.2942 9.53972 16.6673 9.99996 16.6673Z" stroke="#98A2B3" stroke-width="1.66667" stroke-linecap="round" stroke-linejoin="round"/>
</g>
</g>
</svg>
