<svg width="20" height="20" viewBox="0 0 20 20" fill="none" xmlns="http://www.w3.org/2000/svg">
<g id="hand">
<path id="Icon" d="M5.75002 9.53639V11.8512M5.75002 9.53639V3.98083C5.75002 3.21377 6.38428 2.59194 7.16669 2.59194C7.94909 2.59194 8.58335 3.21377 8.58335 3.98083M5.75002 9.53639C5.75002 8.76932 5.11576 8.1475 4.33335 8.1475C3.55095 8.1475 2.91669 8.76932 2.91669 9.53639V11.3882C2.91669 15.2235 6.088 18.3327 10 18.3327C13.912 18.3327 17.0834 15.2235 17.0834 11.3882V6.75861C17.0834 5.99155 16.4491 5.36972 15.6667 5.36972C14.8843 5.36972 14.25 5.99155 14.25 6.75861M8.58335 3.98083V9.07342M8.58335 3.98083V3.0549C8.58335 2.28784 9.21762 1.66602 10 1.66602C10.7824 1.66602 11.4167 2.28784 11.4167 3.0549V3.98083M11.4167 3.98083V9.07342M11.4167 3.98083C11.4167 3.21377 12.051 2.59194 12.8334 2.59194C13.6158 2.59194 14.25 3.21377 14.25 3.98083V6.75861M14.25 6.75861V9.07342" stroke="#141414" stroke-width="1.67" stroke-linecap="round" stroke-linejoin="round"/>
</g>
</svg>
