<svg width="20" height="20" viewBox="0 0 20 20" fill="none" xmlns="http://www.w3.org/2000/svg">
<g id="Group">
<path id="Vector" d="M10 0.833252C8.19028 0.833252 6.46241 1.35964 4.96693 2.34901C4.70237 2.21935 4.41099 2.14277 4.10722 2.14277C3.02428 2.14277 2.14293 3.02411 2.14293 4.10705C2.14293 4.59614 2.32169 5.06231 2.64581 5.41656C3.02099 5.83302 3.55327 6.07132 4.10722 6.07132C5.19016 6.07132 6.0715 5.18998 6.0715 4.10705C6.0715 3.82747 6.00998 3.55309 5.89601 3.30169C7.12764 2.54217 8.53339 2.14277 10.0001 2.14277C14.3327 2.14277 17.8572 5.66729 17.8572 9.99988C17.8572 14.3325 14.3327 17.857 10.0001 17.857C5.66745 17.857 2.14292 14.3325 2.14292 9.99988C2.14292 8.95423 2.34657 7.938 2.74659 6.97821C2.88607 6.64428 2.72824 6.26125 2.39499 6.12177C2.06174 5.98228 1.67734 6.13943 1.53793 6.47404C1.0704 7.59368 0.833374 8.78002 0.833374 9.99996C0.833374 15.0547 4.94528 19.1666 10 19.1666C15.0548 19.1666 19.1667 15.0547 19.1667 9.99996C19.1667 4.94522 15.0548 0.833339 10 0.833339V0.833252ZM4.10718 4.7618C3.92127 4.7618 3.74706 4.68255 3.61543 4.5366C3.51005 4.42134 3.45242 4.26944 3.45242 4.10705C3.45242 3.74625 3.74577 3.45229 4.10719 3.45229C4.26958 3.45229 4.42147 3.50992 4.53933 3.61727C4.68269 3.74693 4.76195 3.92043 4.76195 4.10705C4.76195 4.46785 4.46859 4.7618 4.10718 4.7618Z" fill="#E62E05"/>
<path id="Vector_2" d="M10 4.10701C6.7505 4.10701 4.10718 6.75102 4.10718 9.99984C4.10718 13.2487 6.7505 15.8927 10 15.8927C10.4989 15.8927 10.9946 15.8298 11.4739 15.7061C11.8235 15.6151 12.0337 15.2582 11.9434 14.9079C11.853 14.5576 11.4942 14.3481 11.1453 14.4378C10.7739 14.534 10.3883 14.5831 10 14.5831C7.47335 14.5831 5.4167 12.5272 5.4167 9.99983C5.4167 7.47246 7.47335 5.41652 10 5.41652C12.5267 5.41652 14.5834 7.47246 14.5834 9.99983C14.5834 10.4667 14.5081 10.923 14.3686 11.3663C14.2239 11.3329 14.0772 11.3094 13.9286 11.3094C12.8457 11.3094 11.9643 12.1907 11.9643 13.2736C11.9643 13.8269 12.2026 14.3598 12.6158 14.7324C12.972 15.0585 13.4382 15.2379 13.9286 15.2379C15.0115 15.2379 15.8929 14.3566 15.8929 13.2736C15.8929 12.8441 15.7495 12.4388 15.4961 12.1009C15.7547 11.4259 15.8929 10.7227 15.8929 9.99976C15.8929 6.75094 13.2496 4.10693 10 4.10693V4.10701ZM13.9286 13.9284C13.7662 13.9284 13.6143 13.8708 13.4965 13.7634C13.3531 13.6338 13.2738 13.4602 13.2738 13.2736C13.2738 12.9128 13.5672 12.6189 13.9286 12.6189C14.0733 12.6189 14.218 12.6693 14.3287 12.7538C14.4904 12.8808 14.5834 13.07 14.5834 13.2736C14.5834 13.6344 14.29 13.9284 13.9286 13.9284Z" fill="#E62E05"/>
<path id="Vector_3" d="M9.99997 7.38086C8.55553 7.38086 7.38092 8.55546 7.38092 9.99989C7.38092 11.4443 8.55553 12.6189 9.99997 12.6189C11.4444 12.6189 12.619 11.4443 12.619 9.99989C12.619 8.55546 11.4444 7.38086 9.99997 7.38086ZM9.99997 11.3094C9.27776 11.3094 8.69044 10.7221 8.69044 9.99989C8.69044 9.27769 9.27776 8.69038 9.99997 8.69038C10.7222 8.69038 11.3095 9.27769 11.3095 9.99989C11.3095 10.7221 10.7222 11.3094 9.99997 11.3094Z" fill="#E62E05"/>
</g>
</svg>
