<svg width="18" height="20" viewBox="0 0 18 20" fill="none" xmlns="http://www.w3.org/2000/svg">
<g id="Group">
<path id="Vector" d="M15.0575 13.3034C15.0437 13.2969 15.0298 13.2914 15.016 13.2866C15.002 12.4656 14.3401 11.7983 13.5273 11.7983C13.1961 11.7983 12.8883 11.909 12.6397 12.0973C12.61 12.0669 12.5748 12.0406 12.5345 12.0209L11.9538 11.7252C11.9538 11.7252 11.9538 11.7252 11.9538 11.7252C11.7532 11.623 11.5102 11.7065 11.4108 11.9088C11.3118 12.1104 11.3915 12.3565 11.5913 12.4583L11.5913 12.4583L12.149 12.7422C12.0782 12.9178 12.0383 13.1102 12.0383 13.3132C12.0383 14.1464 12.7057 14.8282 13.5273 14.8282C14.0688 14.8282 14.5428 14.532 14.8022 14.0921L15.2764 14.3336C15.3352 14.3636 15.3953 14.3776 15.4577 14.3776C15.6062 14.3776 15.7494 14.295 15.8195 14.1497C15.8853 14.0154 15.8719 13.8614 15.7965 13.7435L15.914 13.7394L15.6411 13.6005L15.0598 13.3045L15.0598 13.3045L15.0575 13.3034ZM13.5273 14.0071C13.1537 14.0071 12.8473 13.6971 12.8473 13.3132C12.8473 12.9292 13.1537 12.6192 13.5273 12.6192C13.9008 12.6192 14.2073 12.9292 14.2073 13.3132C14.2073 13.6971 13.9008 14.0071 13.5273 14.0071Z" fill="#E62E05" stroke="#E62E05" stroke-width="0.158311"/>
<path id="Vector_2" d="M7.51791 10.9762L6.93668 11.2721L6.93666 11.2722C6.73702 11.3739 6.65731 11.6197 6.7561 11.8213C6.82625 11.9666 6.96947 12.0492 7.1179 12.0492C7.18038 12.0492 7.24033 12.0351 7.29912 12.0052C7.29912 12.0052 7.29912 12.0052 7.29912 12.0052L7.88041 11.7093L7.88042 11.7092C8.08015 11.6075 8.15984 11.3615 8.06085 11.1598L8.06084 11.1598C7.96147 10.9575 7.71856 10.874 7.5179 10.9762L7.51791 10.9762Z" fill="#E62E05" stroke="#E62E05" stroke-width="0.158311"/>
<path id="Vector_3" d="M10.0405 11.6673L10.6218 11.9632C10.6806 11.9932 10.7406 12.0072 10.803 12.0072C10.9515 12.0072 11.0947 11.9246 11.1648 11.7793C11.2636 11.5778 11.1839 11.3319 10.9843 11.2302L10.9843 11.2302L10.403 10.9342C10.403 10.9342 10.403 10.9342 10.403 10.9342C10.2024 10.832 9.95942 10.9155 9.86006 11.1178C9.76106 11.3194 9.84075 11.5655 10.0405 11.6673L10.0405 11.6673Z" fill="#E62E05" stroke="#E62E05" stroke-width="0.158311"/>
<path id="Vector_4" d="M9.00272 6.0727C8.7776 6.0727 8.59821 6.25749 8.59821 6.48319V7.14586C8.59821 7.37157 8.7776 7.55636 9.00272 7.55636C9.22783 7.55636 9.40722 7.37157 9.40722 7.14586V6.48319C9.40722 6.25749 9.22783 6.0727 9.00272 6.0727Z" fill="#E62E05" stroke="#E62E05" stroke-width="0.158311"/>
<path id="Vector_5" d="M8.37163 5.92389C8.61264 5.92389 8.84294 5.87474 9.05167 5.78507C9.15426 5.77188 9.24347 5.72189 9.30767 5.64609C9.7986 5.32835 10.1274 4.77261 10.1274 4.13721C10.1274 3.15385 9.34069 2.35053 8.37161 2.35053C7.40253 2.35053 6.61579 3.15385 6.61579 4.13721C6.61579 5.12057 7.40253 5.92389 8.37161 5.92389H8.37163ZM8.37163 3.17159C8.89267 3.17159 9.31844 3.60309 9.31844 4.13728C9.31844 4.67146 8.89268 5.10298 8.37163 5.10298C7.85058 5.10298 7.42482 4.67148 7.42482 4.13728C7.42482 3.60311 7.85058 3.17159 8.37163 3.17159Z" fill="#E62E05" stroke="#E62E05" stroke-width="0.158311"/>
<path id="Vector_6" d="M14.6117 10.5914C15.4875 10.5914 16.1983 9.86535 16.1983 8.97705C16.1983 8.08867 15.4875 7.36274 14.6117 7.36274C13.7359 7.36274 13.0252 8.08875 13.0252 8.97705C13.0252 9.86543 13.736 10.5914 14.6117 10.5914ZM15.3893 8.97705C15.3893 9.41624 15.0395 9.77037 14.6117 9.77037C14.184 9.77037 13.8342 9.41624 13.8342 8.97705C13.8342 8.53786 14.184 8.18372 14.6117 8.18372C15.0395 8.18372 15.3893 8.53786 15.3893 8.97705Z" fill="#E62E05" stroke="#E62E05" stroke-width="0.158311"/>
<path id="Vector_7" d="M6.32735 12.5025L6.32737 12.5025C6.5271 12.4008 6.60678 12.1547 6.5078 11.9531L6.50779 11.9531C6.40842 11.7508 6.16551 11.6673 5.96484 11.7695L5.44306 12.0351C5.2619 11.4069 4.69158 10.9457 4.01401 10.9457C3.19242 10.9457 2.52501 11.6275 2.52501 12.4607C2.52501 12.8 2.63598 13.1149 2.82307 13.3681L2.27976 13.6447L2.27974 13.6447C2.0801 13.7465 2.00039 13.9923 2.09918 14.1939C2.16933 14.3392 2.31255 14.4218 2.46097 14.4218C2.52345 14.4218 2.58341 14.4077 2.64219 14.3778C2.64219 14.3778 2.6422 14.3778 2.6422 14.3778L3.22348 14.0818L3.22349 14.0818C3.32203 14.0317 3.38985 13.9468 3.42261 13.851C3.60441 13.9317 3.80353 13.9756 4.01393 13.9756C4.71248 13.9756 5.29613 13.4845 5.45749 12.827C5.49165 12.8369 5.52764 12.8425 5.56484 12.8425C5.62732 12.8425 5.68728 12.8284 5.74607 12.7985L6.32735 12.5025ZM4.01399 11.7667C4.38754 11.7667 4.69398 12.0767 4.69398 12.4607C4.69398 12.8447 4.38754 13.1546 4.01399 13.1546C3.64045 13.1546 3.334 12.8447 3.334 12.4607C3.334 12.0767 3.64045 11.7667 4.01399 11.7667Z" fill="#E62E05" stroke="#E62E05" stroke-width="0.158311"/>
<path id="Vector_8" d="M2.92954 10.7967C3.51255 10.7967 3.98474 10.3137 3.98474 9.7235C3.98474 9.13331 3.51255 8.65034 2.92954 8.65034C2.34652 8.65034 1.87434 9.13331 1.87434 9.7235C1.87434 10.3137 2.34652 10.7967 2.92954 10.7967ZM2.92954 9.47132C3.06451 9.47132 3.17573 9.58249 3.17573 9.7235C3.17573 9.86451 3.06451 9.97568 2.92954 9.97568C2.79457 9.97568 2.68334 9.86451 2.68334 9.7235C2.68334 9.58249 2.79457 9.47132 2.92954 9.47132Z" fill="#E62E05" stroke="#E62E05" stroke-width="0.158311"/>
<path id="Vector_9" d="M12.8777 9.99987C12.8777 9.40967 12.4055 8.9267 11.8225 8.9267C11.2395 8.9267 10.7673 9.40967 10.7673 9.99987C10.7673 10.5901 11.2395 11.073 11.8225 11.073C12.4055 11.073 12.8777 10.5901 12.8777 9.99987ZM11.8225 9.74769C11.9575 9.74769 12.0687 9.85886 12.0687 9.99987C12.0687 10.1409 11.9575 10.252 11.8225 10.252C11.6875 10.252 11.5763 10.1409 11.5763 9.99987C11.5763 9.85886 11.6875 9.74769 11.8225 9.74769Z" fill="#E62E05" stroke="#E62E05" stroke-width="0.158311"/>
<path id="Vector_10" d="M5.31552 6.21317C5.89854 6.21317 6.37072 5.7302 6.37072 5.14C6.37072 4.54981 5.89854 4.06684 5.31552 4.06684C4.73251 4.06684 4.26032 4.54981 4.26032 5.14C4.26032 5.7302 4.73251 6.21317 5.31552 6.21317ZM5.31552 4.88782C5.45049 4.88782 5.56172 4.999 5.56172 5.14C5.56172 5.28101 5.45049 5.39218 5.31552 5.39218C5.18055 5.39218 5.06933 5.28101 5.06933 5.14C5.06933 4.999 5.18055 4.88782 5.31552 4.88782Z" fill="#E62E05" stroke="#E62E05" stroke-width="0.158311"/>
<path id="Vector_11" d="M5.74918 13.8505C5.16616 13.8505 4.69398 14.3335 4.69398 14.9237C4.69398 15.5139 5.16616 15.9969 5.74918 15.9969C6.33219 15.9969 6.80438 15.5139 6.80438 14.9237C6.80438 14.3335 6.33219 13.8505 5.74918 13.8505ZM5.74918 15.1759C5.61421 15.1759 5.50299 15.0647 5.50299 14.9237C5.50299 14.7827 5.61421 14.6715 5.74918 14.6715C5.88415 14.6715 5.99537 14.7827 5.99537 14.9237C5.99537 15.0647 5.88415 15.1759 5.74918 15.1759Z" fill="#E62E05" stroke="#E62E05" stroke-width="0.158311"/>
<path id="Vector_12" d="M12.2563 6.75689C13.0779 6.75689 13.7453 6.0751 13.7453 5.24194C13.7453 4.40879 13.0779 3.727 12.2563 3.727C11.4347 3.727 10.7673 4.40879 10.7673 5.24194C10.7673 6.0751 11.4347 6.75689 12.2563 6.75689ZM12.2563 4.54798C12.6298 4.54798 12.9363 4.85797 12.9363 5.24194C12.9363 5.62591 12.6298 5.9359 12.2563 5.9359C11.8827 5.9359 11.5763 5.62591 11.5763 5.24194C11.5763 4.85797 11.8827 4.54798 12.2563 4.54798Z" fill="#E62E05" stroke="#E62E05" stroke-width="0.158311"/>
<g id="Vector_13">
<mask id="path-13-outside-1_155_86285" maskUnits="userSpaceOnUse" x="-0.333313" y="-0.166504" width="18" height="20" fill="black">
<rect fill="white" x="-0.333313" y="-0.166504" width="18" height="20"/>
<path d="M17.3136 5.127C17.3071 5.10931 17.3006 5.09162 17.2897 5.074C17.2832 5.06293 17.2767 5.05631 17.2702 5.04531C17.2594 5.03208 17.2507 5.01662 17.2377 5.00555C17.229 4.99671 17.2182 4.99009 17.2095 4.98125C17.2008 4.97463 17.1921 4.96579 17.1813 4.95917C17.177 4.95694 17.1727 4.95479 17.1662 4.95256C17.1619 4.95033 17.1597 4.94594 17.1553 4.94371L9.14737 0.868279C9.05629 0.821902 8.94784 0.821902 8.85676 0.868279L0.848848 4.94592C0.848848 4.94592 0.842352 4.95254 0.837975 4.95477C0.833668 4.95699 0.82929 4.95915 0.822795 4.96138C0.811922 4.968 0.805426 4.97684 0.794623 4.98346C0.785939 4.99007 0.775137 4.99891 0.766452 5.00776C0.75346 5.02099 0.744776 5.03429 0.733902 5.04752C0.727407 5.05637 0.718722 5.06521 0.714416 5.07621C0.705731 5.0939 0.697047 5.11159 0.690552 5.12921C0.686245 5.13805 0.681867 5.14689 0.679678 5.15574C0.670994 5.18443 0.666687 5.21319 0.666687 5.24411V14.7601V14.7712C0.666687 14.7955 0.670994 14.822 0.67756 14.8462C0.67756 14.8528 0.681867 14.8595 0.686245 14.8683C0.690552 14.8815 0.694929 14.8948 0.701425 14.9081C0.701425 14.9124 0.705732 14.9147 0.70792 14.9191C0.716605 14.9346 0.727407 14.9501 0.738281 14.9633C0.746965 14.9744 0.753461 14.9854 0.762145 14.9942C0.773018 15.0053 0.78601 15.014 0.796883 15.0229C0.809875 15.0317 0.820748 15.0406 0.83374 15.0494C0.838047 15.0494 0.840236 15.0538 0.844613 15.056L8.85253 19.1337C8.86552 19.1403 8.87858 19.1425 8.89157 19.1469C8.90026 19.1491 8.90894 19.1535 8.91763 19.1558C8.94368 19.1624 8.97185 19.1668 9.00002 19.1668C9.02819 19.1668 9.05425 19.1624 9.08242 19.1558C9.0911 19.1535 9.09979 19.1491 9.10847 19.1469C9.12146 19.1425 9.13452 19.1381 9.14752 19.1337L17.1554 15.056C17.1554 15.056 17.1619 15.0517 17.1663 15.0494C17.1793 15.0428 17.1902 15.0317 17.2032 15.0229C17.2162 15.014 17.227 15.0052 17.2379 14.9942C17.2466 14.9854 17.2553 14.9744 17.2618 14.9633C17.2726 14.9501 17.2834 14.9346 17.2921 14.9191C17.2921 14.9147 17.2964 14.9125 17.2986 14.9081C17.3051 14.8948 17.3095 14.8815 17.3138 14.8683C17.316 14.8617 17.3203 14.8551 17.3225 14.8462C17.329 14.8219 17.3312 14.7954 17.3334 14.7712V14.7601L17.3332 5.2419C17.3332 5.21098 17.3289 5.18229 17.3202 5.15353C17.318 5.14469 17.3137 5.13584 17.3093 5.127H17.3136ZM8.67666 1.70098V1.84458C8.67666 2.02793 8.82197 2.17591 9.00201 2.17591C9.18205 2.17591 9.32736 2.02793 9.32736 1.84458V1.70098L16.2833 5.24186L9.32736 8.78274V8.2482C9.32736 8.06484 9.18205 7.91686 9.00201 7.91686C8.82197 7.91686 8.67666 8.06484 8.67666 8.2482V8.78274L8.52048 8.70321C8.53785 8.595 8.54865 8.4867 8.54865 8.3741C8.54865 7.26081 7.65938 6.35516 6.5662 6.35516C6.00446 6.35516 5.49688 6.5959 5.13468 6.9803L1.72069 5.24187L8.67666 1.70098ZM8.67666 16.1207C8.21031 15.8667 7.89147 15.3675 7.89147 14.791C7.89147 14.2145 8.21033 13.7152 8.67666 13.4613V16.1207ZM9.32736 13.2889H9.36859C10.1841 13.2889 10.8457 13.9648 10.8457 14.7932C10.8457 15.6215 10.182 16.2974 9.36859 16.2974H9.32736V13.2889ZM7.24079 14.791C7.24079 15.7386 7.84375 16.5449 8.67668 16.8387V18.2987L1.70771 14.749C1.81397 14.6518 1.84871 14.4928 1.78142 14.3559C1.70114 14.1924 1.506 14.1261 1.34544 14.2079L1.31938 14.2211L1.31945 5.77867L4.76598 7.53472C4.64885 7.79099 4.58382 8.07586 4.58382 8.37629C4.58382 9.48958 5.47309 10.3952 6.56628 10.3952C7.31675 10.3952 7.97182 9.96669 8.31015 9.33939L8.67884 9.52713V10.477L8.52485 10.5565C8.36436 10.6383 8.29928 10.837 8.37954 11.0005C8.43596 11.1176 8.5509 11.1839 8.67015 11.1839H8.67884V12.7456C7.84379 13.0394 7.24295 13.8457 7.24295 14.7932L7.24079 14.791ZM5.34726 7.83074L7.72664 9.04125C7.49675 9.45211 7.06506 9.73262 6.56625 9.73262C5.83096 9.73262 5.23449 9.12295 5.23449 8.37635C5.23449 8.18199 5.27573 7.99863 5.34726 7.83074ZM7.89799 8.38957L5.75937 7.30058C5.98275 7.12607 6.26257 7.02009 6.56625 7.02009C7.30154 7.02009 7.89801 7.62976 7.89801 8.37635V8.38958L7.89799 8.38957ZM9.32732 18.3009V16.9579H9.36855C10.542 16.9579 11.4963 15.986 11.4963 14.791C11.4963 13.5959 10.542 12.624 9.36855 12.624H9.32732V11.1264C9.41628 11.1043 9.49649 11.0447 9.53992 10.9541C9.6202 10.7907 9.5551 10.5919 9.39461 10.5101L9.32739 10.4747V9.52487L16.6846 5.77856V14.2232L16.5719 14.1658C16.4114 14.084 16.2161 14.1503 16.1359 14.3137C16.0556 14.4772 16.1207 14.676 16.2812 14.7578L9.32522 18.2986L9.32732 18.3009Z"/>
</mask>
<path d="M17.3136 5.127C17.3071 5.10931 17.3006 5.09162 17.2897 5.074C17.2832 5.06293 17.2767 5.05631 17.2702 5.04531C17.2594 5.03208 17.2507 5.01662 17.2377 5.00555C17.229 4.99671 17.2182 4.99009 17.2095 4.98125C17.2008 4.97463 17.1921 4.96579 17.1813 4.95917C17.177 4.95694 17.1727 4.95479 17.1662 4.95256C17.1619 4.95033 17.1597 4.94594 17.1553 4.94371L9.14737 0.868279C9.05629 0.821902 8.94784 0.821902 8.85676 0.868279L0.848848 4.94592C0.848848 4.94592 0.842352 4.95254 0.837975 4.95477C0.833668 4.95699 0.82929 4.95915 0.822795 4.96138C0.811922 4.968 0.805426 4.97684 0.794623 4.98346C0.785939 4.99007 0.775137 4.99891 0.766452 5.00776C0.75346 5.02099 0.744776 5.03429 0.733902 5.04752C0.727407 5.05637 0.718722 5.06521 0.714416 5.07621C0.705731 5.0939 0.697047 5.11159 0.690552 5.12921C0.686245 5.13805 0.681867 5.14689 0.679678 5.15574C0.670994 5.18443 0.666687 5.21319 0.666687 5.24411V14.7601V14.7712C0.666687 14.7955 0.670994 14.822 0.67756 14.8462C0.67756 14.8528 0.681867 14.8595 0.686245 14.8683C0.690552 14.8815 0.694929 14.8948 0.701425 14.9081C0.701425 14.9124 0.705732 14.9147 0.70792 14.9191C0.716605 14.9346 0.727407 14.9501 0.738281 14.9633C0.746965 14.9744 0.753461 14.9854 0.762145 14.9942C0.773018 15.0053 0.78601 15.014 0.796883 15.0229C0.809875 15.0317 0.820748 15.0406 0.83374 15.0494C0.838047 15.0494 0.840236 15.0538 0.844613 15.056L8.85253 19.1337C8.86552 19.1403 8.87858 19.1425 8.89157 19.1469C8.90026 19.1491 8.90894 19.1535 8.91763 19.1558C8.94368 19.1624 8.97185 19.1668 9.00002 19.1668C9.02819 19.1668 9.05425 19.1624 9.08242 19.1558C9.0911 19.1535 9.09979 19.1491 9.10847 19.1469C9.12146 19.1425 9.13452 19.1381 9.14752 19.1337L17.1554 15.056C17.1554 15.056 17.1619 15.0517 17.1663 15.0494C17.1793 15.0428 17.1902 15.0317 17.2032 15.0229C17.2162 15.014 17.227 15.0052 17.2379 14.9942C17.2466 14.9854 17.2553 14.9744 17.2618 14.9633C17.2726 14.9501 17.2834 14.9346 17.2921 14.9191C17.2921 14.9147 17.2964 14.9125 17.2986 14.9081C17.3051 14.8948 17.3095 14.8815 17.3138 14.8683C17.316 14.8617 17.3203 14.8551 17.3225 14.8462C17.329 14.8219 17.3312 14.7954 17.3334 14.7712V14.7601L17.3332 5.2419C17.3332 5.21098 17.3289 5.18229 17.3202 5.15353C17.318 5.14469 17.3137 5.13584 17.3093 5.127H17.3136ZM8.67666 1.70098V1.84458C8.67666 2.02793 8.82197 2.17591 9.00201 2.17591C9.18205 2.17591 9.32736 2.02793 9.32736 1.84458V1.70098L16.2833 5.24186L9.32736 8.78274V8.2482C9.32736 8.06484 9.18205 7.91686 9.00201 7.91686C8.82197 7.91686 8.67666 8.06484 8.67666 8.2482V8.78274L8.52048 8.70321C8.53785 8.595 8.54865 8.4867 8.54865 8.3741C8.54865 7.26081 7.65938 6.35516 6.5662 6.35516C6.00446 6.35516 5.49688 6.5959 5.13468 6.9803L1.72069 5.24187L8.67666 1.70098ZM8.67666 16.1207C8.21031 15.8667 7.89147 15.3675 7.89147 14.791C7.89147 14.2145 8.21033 13.7152 8.67666 13.4613V16.1207ZM9.32736 13.2889H9.36859C10.1841 13.2889 10.8457 13.9648 10.8457 14.7932C10.8457 15.6215 10.182 16.2974 9.36859 16.2974H9.32736V13.2889ZM7.24079 14.791C7.24079 15.7386 7.84375 16.5449 8.67668 16.8387V18.2987L1.70771 14.749C1.81397 14.6518 1.84871 14.4928 1.78142 14.3559C1.70114 14.1924 1.506 14.1261 1.34544 14.2079L1.31938 14.2211L1.31945 5.77867L4.76598 7.53472C4.64885 7.79099 4.58382 8.07586 4.58382 8.37629C4.58382 9.48958 5.47309 10.3952 6.56628 10.3952C7.31675 10.3952 7.97182 9.96669 8.31015 9.33939L8.67884 9.52713V10.477L8.52485 10.5565C8.36436 10.6383 8.29928 10.837 8.37954 11.0005C8.43596 11.1176 8.5509 11.1839 8.67015 11.1839H8.67884V12.7456C7.84379 13.0394 7.24295 13.8457 7.24295 14.7932L7.24079 14.791ZM5.34726 7.83074L7.72664 9.04125C7.49675 9.45211 7.06506 9.73262 6.56625 9.73262C5.83096 9.73262 5.23449 9.12295 5.23449 8.37635C5.23449 8.18199 5.27573 7.99863 5.34726 7.83074ZM7.89799 8.38957L5.75937 7.30058C5.98275 7.12607 6.26257 7.02009 6.56625 7.02009C7.30154 7.02009 7.89801 7.62976 7.89801 8.37635V8.38958L7.89799 8.38957ZM9.32732 18.3009V16.9579H9.36855C10.542 16.9579 11.4963 15.986 11.4963 14.791C11.4963 13.5959 10.542 12.624 9.36855 12.624H9.32732V11.1264C9.41628 11.1043 9.49649 11.0447 9.53992 10.9541C9.6202 10.7907 9.5551 10.5919 9.39461 10.5101L9.32739 10.4747V9.52487L16.6846 5.77856V14.2232L16.5719 14.1658C16.4114 14.084 16.2161 14.1503 16.1359 14.3137C16.0556 14.4772 16.1207 14.676 16.2812 14.7578L9.32522 18.2986L9.32732 18.3009Z" fill="#E62E05"/>
<path d="M17.3136 5.127C17.3071 5.10931 17.3006 5.09162 17.2897 5.074C17.2832 5.06293 17.2767 5.05631 17.2702 5.04531C17.2594 5.03208 17.2507 5.01662 17.2377 5.00555C17.229 4.99671 17.2182 4.99009 17.2095 4.98125C17.2008 4.97463 17.1921 4.96579 17.1813 4.95917C17.177 4.95694 17.1727 4.95479 17.1662 4.95256C17.1619 4.95033 17.1597 4.94594 17.1553 4.94371L9.14737 0.868279C9.05629 0.821902 8.94784 0.821902 8.85676 0.868279L0.848848 4.94592C0.848848 4.94592 0.842352 4.95254 0.837975 4.95477C0.833668 4.95699 0.82929 4.95915 0.822795 4.96138C0.811922 4.968 0.805426 4.97684 0.794623 4.98346C0.785939 4.99007 0.775137 4.99891 0.766452 5.00776C0.75346 5.02099 0.744776 5.03429 0.733902 5.04752C0.727407 5.05637 0.718722 5.06521 0.714416 5.07621C0.705731 5.0939 0.697047 5.11159 0.690552 5.12921C0.686245 5.13805 0.681867 5.14689 0.679678 5.15574C0.670994 5.18443 0.666687 5.21319 0.666687 5.24411V14.7601V14.7712C0.666687 14.7955 0.670994 14.822 0.67756 14.8462C0.67756 14.8528 0.681867 14.8595 0.686245 14.8683C0.690552 14.8815 0.694929 14.8948 0.701425 14.9081C0.701425 14.9124 0.705732 14.9147 0.70792 14.9191C0.716605 14.9346 0.727407 14.9501 0.738281 14.9633C0.746965 14.9744 0.753461 14.9854 0.762145 14.9942C0.773018 15.0053 0.78601 15.014 0.796883 15.0229C0.809875 15.0317 0.820748 15.0406 0.83374 15.0494C0.838047 15.0494 0.840236 15.0538 0.844613 15.056L8.85253 19.1337C8.86552 19.1403 8.87858 19.1425 8.89157 19.1469C8.90026 19.1491 8.90894 19.1535 8.91763 19.1558C8.94368 19.1624 8.97185 19.1668 9.00002 19.1668C9.02819 19.1668 9.05425 19.1624 9.08242 19.1558C9.0911 19.1535 9.09979 19.1491 9.10847 19.1469C9.12146 19.1425 9.13452 19.1381 9.14752 19.1337L17.1554 15.056C17.1554 15.056 17.1619 15.0517 17.1663 15.0494C17.1793 15.0428 17.1902 15.0317 17.2032 15.0229C17.2162 15.014 17.227 15.0052 17.2379 14.9942C17.2466 14.9854 17.2553 14.9744 17.2618 14.9633C17.2726 14.9501 17.2834 14.9346 17.2921 14.9191C17.2921 14.9147 17.2964 14.9125 17.2986 14.9081C17.3051 14.8948 17.3095 14.8815 17.3138 14.8683C17.316 14.8617 17.3203 14.8551 17.3225 14.8462C17.329 14.8219 17.3312 14.7954 17.3334 14.7712V14.7601L17.3332 5.2419C17.3332 5.21098 17.3289 5.18229 17.3202 5.15353C17.318 5.14469 17.3137 5.13584 17.3093 5.127H17.3136ZM8.67666 1.70098V1.84458C8.67666 2.02793 8.82197 2.17591 9.00201 2.17591C9.18205 2.17591 9.32736 2.02793 9.32736 1.84458V1.70098L16.2833 5.24186L9.32736 8.78274V8.2482C9.32736 8.06484 9.18205 7.91686 9.00201 7.91686C8.82197 7.91686 8.67666 8.06484 8.67666 8.2482V8.78274L8.52048 8.70321C8.53785 8.595 8.54865 8.4867 8.54865 8.3741C8.54865 7.26081 7.65938 6.35516 6.5662 6.35516C6.00446 6.35516 5.49688 6.5959 5.13468 6.9803L1.72069 5.24187L8.67666 1.70098ZM8.67666 16.1207C8.21031 15.8667 7.89147 15.3675 7.89147 14.791C7.89147 14.2145 8.21033 13.7152 8.67666 13.4613V16.1207ZM9.32736 13.2889H9.36859C10.1841 13.2889 10.8457 13.9648 10.8457 14.7932C10.8457 15.6215 10.182 16.2974 9.36859 16.2974H9.32736V13.2889ZM7.24079 14.791C7.24079 15.7386 7.84375 16.5449 8.67668 16.8387V18.2987L1.70771 14.749C1.81397 14.6518 1.84871 14.4928 1.78142 14.3559C1.70114 14.1924 1.506 14.1261 1.34544 14.2079L1.31938 14.2211L1.31945 5.77867L4.76598 7.53472C4.64885 7.79099 4.58382 8.07586 4.58382 8.37629C4.58382 9.48958 5.47309 10.3952 6.56628 10.3952C7.31675 10.3952 7.97182 9.96669 8.31015 9.33939L8.67884 9.52713V10.477L8.52485 10.5565C8.36436 10.6383 8.29928 10.837 8.37954 11.0005C8.43596 11.1176 8.5509 11.1839 8.67015 11.1839H8.67884V12.7456C7.84379 13.0394 7.24295 13.8457 7.24295 14.7932L7.24079 14.791ZM5.34726 7.83074L7.72664 9.04125C7.49675 9.45211 7.06506 9.73262 6.56625 9.73262C5.83096 9.73262 5.23449 9.12295 5.23449 8.37635C5.23449 8.18199 5.27573 7.99863 5.34726 7.83074ZM7.89799 8.38957L5.75937 7.30058C5.98275 7.12607 6.26257 7.02009 6.56625 7.02009C7.30154 7.02009 7.89801 7.62976 7.89801 8.37635V8.38958L7.89799 8.38957ZM9.32732 18.3009V16.9579H9.36855C10.542 16.9579 11.4963 15.986 11.4963 14.791C11.4963 13.5959 10.542 12.624 9.36855 12.624H9.32732V11.1264C9.41628 11.1043 9.49649 11.0447 9.53992 10.9541C9.6202 10.7907 9.5551 10.5919 9.39461 10.5101L9.32739 10.4747V9.52487L16.6846 5.77856V14.2232L16.5719 14.1658C16.4114 14.084 16.2161 14.1503 16.1359 14.3137C16.0556 14.4772 16.1207 14.676 16.2812 14.7578L9.32522 18.2986L9.32732 18.3009Z" stroke="#E62E05" stroke-width="0.316623" mask="url(#path-13-outside-1_155_86285)"/>
</g>
</g>
</svg>
