<svg width="20" height="20" viewBox="0 0 20 20" fill="none" xmlns="http://www.w3.org/2000/svg">
<g id="Icons" clip-path="url(#clip0_155_86948)">
<path id="Double Helix" d="M13.1285 1.1447L13.1292 1.14575L13.1383 1.13674C13.376 0.899194 13.376 0.518591 13.1383 0.281049C12.9005 0.043535 12.5197 0.043535 12.282 0.281049C11.5228 1.0396 11.2526 1.93953 11.2526 2.90409C11.2526 3.82877 11.5009 4.81504 11.8038 5.79706C9.80139 5.14182 7.77181 4.78758 6.28155 6.27662C5.52239 7.03517 5.25212 7.93511 5.25212 8.89967C5.25212 9.82435 5.50044 10.8106 5.80335 11.7926C3.80093 11.1374 1.77135 10.7832 0.281093 12.2722C0.0433573 12.5097 0.0433573 12.8903 0.281093 13.1279C0.5188 13.3654 0.899624 13.3654 1.13733 13.1279C1.24984 13.0155 1.32597 12.9396 1.42522 12.8679L6.62739 18.0658C6.55184 18.1777 6.47853 18.2767 6.37634 18.3448L6.37564 18.3438L6.36661 18.3528C6.12888 18.5903 6.12888 18.9709 6.36661 19.2085C6.4157 19.2575 6.48628 19.304 6.56054 19.3382C6.63444 19.3723 6.71837 19.3972 6.79478 19.3972C6.93954 19.3972 7.08336 19.3479 7.22294 19.2085L7.18218 19.1677L7.22294 19.2085C7.98211 18.4499 8.25237 17.55 8.25237 16.5854C8.25237 15.6607 8.00404 14.6744 7.70112 13.6924C8.68544 14.0137 9.67202 14.2521 10.5823 14.2521C11.5307 14.2521 12.4429 13.9933 13.1815 13.2122C13.9402 12.4538 14.2103 11.5541 14.2103 10.5898C14.2103 9.66515 13.962 8.67889 13.659 7.69686C15.6606 8.35181 17.6892 8.70603 19.1793 7.21931C19.4618 6.98197 19.4619 6.59952 19.2238 6.36161C18.9861 6.1241 18.6052 6.1241 18.3675 6.36161C18.255 6.47403 18.1789 6.54991 18.0796 6.62162L12.8775 1.42368C12.953 1.31183 13.0263 1.2128 13.1285 1.1447ZM9.68977 6.49647C10.4935 6.61641 11.3714 6.90698 12.2767 7.22219C12.5923 8.14795 12.8833 9.03581 13.0033 9.8392C13.12 10.6195 13.0738 11.3105 12.7407 11.8749L7.62137 6.75979C8.20658 6.42589 8.90887 6.37994 9.68977 6.49647ZM6.31905 13.1758C6.76519 14.4739 7.16268 15.716 7.08439 16.7687L2.72241 12.4102C3.20986 12.3735 3.75151 12.4458 4.33323 12.5814C4.95923 12.7274 5.62715 12.9455 6.31905 13.1758ZM9.85758 12.9504C9.05387 12.8305 8.17592 12.5399 7.27066 12.2247C6.95504 11.2989 6.66409 10.4111 6.54401 9.6077C6.42738 8.82745 6.47351 8.13643 6.80669 7.57198L11.926 12.6871C11.3408 13.021 10.6385 13.067 9.85758 12.9504ZM16.8246 7.03632C15.7709 7.11454 14.5277 6.71727 13.2284 6.27146C12.7822 4.97318 12.3847 3.73099 12.463 2.67822L16.8246 7.03632Z" fill="#E62E05" stroke="#E62E05" stroke-width="0.127669"/>
</g>
<defs>
<clipPath id="clip0_155_86948">
<rect width="20" height="20" fill="white"/>
</clipPath>
</defs>
</svg>
