<svg width="22" height="22" viewBox="0 0 22 22" fill="none" xmlns="http://www.w3.org/2000/svg">
<g id="Group">
<path id="Vector" d="M11.8944 16.2292L10.7474 15.0827L11.8944 13.9362L11.8944 13.9361C12.1625 13.6677 12.1625 13.2325 11.8944 12.964L11.8944 12.9639C11.6653 12.7352 11.3149 12.7017 11.0502 12.8632V12.8359L10.9222 12.9639L9.28951 14.5966L9.28946 14.5966C9.02145 14.8651 9.02145 15.3003 9.28946 15.5688L9.28951 15.5688L10.9222 17.2015L10.9222 17.2015C11.1907 17.4695 11.6259 17.4695 11.8944 17.2015L11.8944 17.2014C12.1625 16.933 12.1625 16.4978 11.8944 16.2293L11.8944 16.2292Z" fill="#141414" stroke="#141414" stroke-width="0.15"/>
<path id="Vector_2" d="M12.963 10.1066C12.7343 10.3356 12.7008 10.686 12.8623 10.9507H12.835L12.963 11.0788L14.5957 12.7114L14.5957 12.7115C14.8642 12.9795 15.2994 12.9795 15.5679 12.7115L15.5679 12.7114L17.2006 11.0788L17.2006 11.0787C17.4686 10.8102 17.4686 10.375 17.2006 10.1066L17.2005 10.1065C16.932 9.83847 16.4969 9.83847 16.2284 10.1065L16.2283 10.1065L15.0818 11.2535L13.9353 10.1065L13.9352 10.1065C13.6667 9.83847 13.2316 9.83847 12.9631 10.1065L12.963 10.1066Z" fill="#141414" stroke="#141414" stroke-width="0.15"/>
<path id="Vector_3" d="M7.93135 14.8721C8.00189 14.4996 7.7568 14.1395 7.38384 14.069L7.3245 14.0577L7.32449 14.0578C5.48971 13.7033 3.98907 13.1004 3.08675 12.3362C2.59338 11.9181 2.29939 11.4759 2.29939 11.0007C2.29939 10.3231 2.86409 9.72208 3.77491 9.18193C5.39696 8.22015 8.0287 7.60627 11.0001 7.60627C13.9714 7.60627 16.6031 8.22015 18.2252 9.18193C19.136 9.72206 19.7007 10.3231 19.7007 11.0007C19.7007 11.6782 19.136 12.2793 18.2252 12.8195C16.6032 13.7812 13.9714 14.3951 11.0001 14.3951H9.77556C9.39622 14.3951 9.08831 14.703 9.08831 15.0824C9.08831 15.4617 9.39622 15.7696 9.77556 15.7696H11.0001C14.2471 15.7696 17.1309 15.0665 18.9261 14.0015C20.304 13.1845 21.0751 12.1189 21.0751 11.0006C21.0751 9.88243 20.304 8.8168 18.9261 7.99971C17.1309 6.93478 14.2471 6.23164 11.0001 6.23164C7.75306 6.23164 4.86921 6.93478 3.07405 7.99971C1.69609 8.81673 0.925061 9.88235 0.925061 11.0006C0.925061 11.8601 1.3689 12.6822 2.19854 13.3847C3.26196 14.2852 5.00446 15.0171 7.12821 15.4196L7.12822 15.4196C7.50069 15.4901 7.86079 15.245 7.93135 14.8721ZM7.93135 14.8721L7.85766 14.8581L7.93135 14.8721C7.93135 14.8721 7.93135 14.8721 7.93135 14.8721Z" fill="#141414" stroke="#141414" stroke-width="0.15"/>
<path id="Vector_4" d="M14.8714 14.0687C14.4989 13.9982 14.1388 14.2433 14.0682 14.6162L14.057 14.6756L14.057 14.6756C13.7026 16.5103 13.0997 18.011 12.3354 18.9133C11.9174 19.4067 11.4752 19.7007 11 19.7007C10.3224 19.7007 9.72135 19.136 9.1812 18.2252C8.21942 16.6031 7.60554 13.9714 7.60554 11C7.60554 8.02863 8.21942 5.39696 9.1812 3.77484C9.72133 2.86403 10.3224 2.29933 11 2.29933C11.6775 2.29933 12.2786 2.86403 12.8187 3.77484C13.7805 5.39689 14.3944 8.02863 14.3944 11V12.2245C14.3944 12.6038 14.7023 12.9117 15.0816 12.9117C15.461 12.9117 15.7689 12.6038 15.7689 12.2245V11C15.7689 7.753 15.0657 4.86915 14.0008 3.07399C13.1838 1.69603 12.1182 0.925 10.9999 0.925C9.8817 0.925 8.81607 1.69603 7.99898 3.07399C6.93405 4.86915 6.23091 7.753 6.23091 11C6.23091 14.247 6.93405 17.1309 7.99898 18.926C8.816 20.304 9.88162 21.075 10.9999 21.075C11.8594 21.075 12.6815 20.6312 13.384 19.8015C14.2845 18.7381 15.0163 16.9956 15.4188 14.8719L15.4189 14.8718C15.4894 14.4994 15.2443 14.1393 14.8714 14.0687ZM14.8714 14.0687L14.8574 14.1424L14.8713 14.0687C14.8714 14.0687 14.8714 14.0687 14.8714 14.0687Z" fill="#141414" stroke="#141414" stroke-width="0.15"/>
</g>
</svg>
