<svg width="16" height="16" viewBox="0 0 16 16" fill="none" xmlns="http://www.w3.org/2000/svg">
<g id="settings-01" clip-path="url(#clip0_3_20965)">
<g id="Icon">
<path d="M8.00065 9.99992C9.10522 9.99992 10.0007 9.10449 10.0007 7.99992C10.0007 6.89535 9.10522 5.99992 8.00065 5.99992C6.89608 5.99992 6.00065 6.89535 6.00065 7.99992C6.00065 9.10449 6.89608 9.99992 8.00065 9.99992Z" stroke="#344054" stroke-width="1.5" stroke-linecap="round" stroke-linejoin="round"/>
<path d="M12.4855 9.8181C12.4048 10.0009 12.3808 10.2037 12.4164 10.4003C12.4521 10.5969 12.5458 10.7783 12.6855 10.9211L12.7219 10.9575C12.8346 11.0701 12.924 11.2038 12.985 11.3509C13.046 11.4981 13.0774 11.6558 13.0774 11.8151C13.0774 11.9744 13.046 12.1321 12.985 12.2792C12.924 12.4264 12.8346 12.5601 12.7219 12.6726C12.6093 12.7853 12.4756 12.8748 12.3285 12.9357C12.1813 12.9967 12.0236 13.0281 11.8643 13.0281C11.705 13.0281 11.5473 12.9967 11.4001 12.9357C11.253 12.8748 11.1193 12.7853 11.0067 12.6726L10.9703 12.6363C10.8275 12.4966 10.6461 12.4028 10.4495 12.3672C10.2529 12.3315 10.0501 12.3556 9.86732 12.4363C9.68806 12.5131 9.53519 12.6407 9.4275 12.8033C9.31982 12.9659 9.26204 13.1564 9.26126 13.3514V13.4545C9.26126 13.7759 9.13355 14.0842 8.90623 14.3116C8.67892 14.5389 8.37061 14.6666 8.04914 14.6666C7.72766 14.6666 7.41935 14.5389 7.19204 14.3116C6.96472 14.0842 6.83701 13.7759 6.83701 13.4545V13.3999C6.83232 13.1993 6.76739 13.0048 6.65066 12.8416C6.53393 12.6783 6.37079 12.554 6.18247 12.4848C5.99967 12.4041 5.7969 12.38 5.60029 12.4157C5.40369 12.4513 5.22227 12.545 5.07944 12.6848L5.04308 12.7211C4.9305 12.8338 4.79682 12.9232 4.64967 12.9842C4.50252 13.0452 4.34479 13.0766 4.1855 13.0766C4.02621 13.0766 3.86848 13.0452 3.72133 12.9842C3.57418 12.9232 3.4405 12.8338 3.32792 12.7211C3.21523 12.6086 3.12582 12.4749 3.06482 12.3277C3.00382 12.1806 2.97242 12.0228 2.97242 11.8636C2.97242 11.7043 3.00382 11.5465 3.06482 11.3994C3.12582 11.2522 3.21523 11.1186 3.32792 11.006L3.36429 10.9696C3.50401 10.8268 3.59773 10.6454 3.63338 10.4488C3.66903 10.2522 3.64496 10.0494 3.56429 9.86659C3.48746 9.68733 3.3599 9.53445 3.1973 9.42677C3.0347 9.31909 2.84416 9.2613 2.64914 9.26052H2.54611C2.22463 9.26052 1.91632 9.13282 1.68901 8.9055C1.46169 8.67819 1.33398 8.36988 1.33398 8.0484C1.33398 7.72693 1.46169 7.41862 1.68901 7.1913C1.91632 6.96399 2.22463 6.83628 2.54611 6.83628H2.60065C2.80125 6.83159 2.99581 6.76666 3.15901 6.64993C3.32222 6.53319 3.44654 6.37006 3.5158 6.18174C3.59648 5.99894 3.62054 5.79617 3.5849 5.59956C3.54925 5.40296 3.45552 5.22154 3.3158 5.07871L3.27944 5.04234C3.16674 4.92977 3.07734 4.79609 3.01634 4.64894C2.95534 4.50179 2.92394 4.34406 2.92394 4.18477C2.92394 4.02548 2.95534 3.86775 3.01634 3.7206C3.07734 3.57345 3.16674 3.43976 3.27944 3.32719C3.39201 3.21449 3.5257 3.12509 3.67284 3.06409C3.81999 3.00309 3.97772 2.97169 4.13701 2.97169C4.29631 2.97169 4.45404 3.00309 4.60118 3.06409C4.74833 3.12509 4.88202 3.21449 4.99459 3.32719L5.03095 3.36356C5.17379 3.50327 5.35521 3.597 5.55181 3.63265C5.74841 3.6683 5.95119 3.64423 6.13398 3.56355H6.18247C6.36172 3.48673 6.5146 3.35916 6.62228 3.19656C6.72997 3.03396 6.78775 2.84343 6.78853 2.6484V2.54537C6.78853 2.2239 6.91624 1.91559 7.14355 1.68827C7.37087 1.46096 7.67918 1.33325 8.00065 1.33325C8.32213 1.33325 8.63043 1.46096 8.85775 1.68827C9.08507 1.91559 9.21277 2.2239 9.21277 2.54537V2.59992C9.21355 2.79494 9.27134 2.98548 9.37902 3.14808C9.4867 3.31068 9.63958 3.43824 9.81883 3.51507C10.0016 3.59575 10.2044 3.61981 10.401 3.58416C10.5976 3.54852 10.779 3.45479 10.9219 3.31507L10.9582 3.27871C11.0708 3.16601 11.2045 3.0766 11.3516 3.0156C11.4988 2.9546 11.6565 2.92321 11.8158 2.92321C11.9751 2.92321 12.1328 2.9546 12.28 3.0156C12.4271 3.0766 12.5608 3.16601 12.6734 3.27871C12.7861 3.39128 12.8755 3.52496 12.9365 3.67211C12.9975 3.81926 13.0289 3.97699 13.0289 4.13628C13.0289 4.29557 12.9975 4.4533 12.9365 4.60045C12.8755 4.7476 12.7861 4.88128 12.6734 4.99386L12.637 5.03022C12.4973 5.17306 12.4036 5.35447 12.3679 5.55108C12.3323 5.74768 12.3563 5.95045 12.437 6.13325V6.18174C12.5138 6.36099 12.6414 6.51387 12.804 6.62155C12.9666 6.72923 13.1571 6.78702 13.3522 6.7878H13.4552C13.7767 6.7878 14.085 6.9155 14.3123 7.14282C14.5396 7.37014 14.6673 7.67844 14.6673 7.99992C14.6673 8.32139 14.5396 8.6297 14.3123 8.85702C14.085 9.08433 13.7767 9.21204 13.4552 9.21204H13.4007C13.2056 9.21282 13.0151 9.27061 12.8525 9.37829C12.6899 9.48597 12.5623 9.63885 12.4855 9.8181Z" stroke="#344054" stroke-width="1.5" stroke-linecap="round" stroke-linejoin="round"/>
</g>
</g>
<defs>
<clipPath id="clip0_3_20965">
<rect width="16" height="16" fill="white"/>
</clipPath>
</defs>
</svg>
