<svg width="20" height="20" viewBox="0 0 20 20" fill="none" xmlns="http://www.w3.org/2000/svg">
<g id="Icons" clip-path="url(#clip0_155_88959)">
<path id="Vector" d="M7.62226 16.7415H7.60413C7.53432 16.7415 7.46379 16.7342 7.39662 16.7053C7.32812 16.6757 7.26889 16.6262 7.2174 16.5511C7.11779 16.4058 7.04312 16.1581 6.97798 15.7483C6.84698 14.9243 6.74789 13.3922 6.61254 10.5613C6.61064 10.5222 6.60873 10.4829 6.60681 10.4434C6.53824 9.03257 6.45546 7.32939 6.3363 6.14086C6.26505 6.89508 6.20566 7.82522 6.15822 8.60639C6.15822 8.60643 6.15821 8.60646 6.15821 8.6065L6.08335 8.60196C5.85413 12.4729 5.72915 13.4407 5.10415 13.4407C4.43752 13.4407 4.29163 12.5133 4.14583 11.5455C4.08331 11.102 3.97914 10.3761 3.83333 10.2149L7.62226 16.7415ZM7.62226 16.7415L7.62281 16.7412C7.68909 16.7394 7.75358 16.7274 7.81461 16.6979C7.88172 16.6655 7.93968 16.6142 7.99022 16.5418C8.08897 16.4004 8.16338 16.1723 8.22744 15.8232C8.35605 15.1221 8.44999 13.8871 8.57488 11.7522C8.59764 11.4526 8.62037 11.1343 8.64351 10.8104C8.70796 9.90794 8.77555 8.96152 8.85567 8.25289C8.92489 8.83838 8.98279 9.55928 9.02937 10.1602L9.02938 10.1603C9.14383 11.5996 9.23271 12.5789 9.37485 13.1979C9.44582 13.5069 9.53201 13.7358 9.64801 13.8883C9.76779 14.0459 9.91845 14.1205 10.1042 14.1205C10.2924 14.1205 10.4435 14.0496 10.5631 13.9211C10.68 13.7954 10.7643 13.6173 10.8295 13.4047C10.9583 12.9851 11.0214 12.4005 11.0931 11.7375L11.0955 11.7148L11.0956 11.7142C11.1268 11.4014 11.1683 10.9902 11.2252 10.6297C11.2536 10.4494 11.2857 10.2836 11.3218 10.15C11.3396 10.0841 11.3577 10.0289 11.3756 9.98475C11.3802 9.99702 11.3849 10.0104 11.3898 10.0251C11.4144 10.1 11.4372 10.1943 11.4577 10.2976C11.4988 10.5038 11.5298 10.7383 11.5506 10.9094L11.5507 10.91C11.6024 11.3105 11.6605 11.7547 11.8031 12.0985C11.8749 12.2713 11.97 12.4243 12.1013 12.5342C12.234 12.6455 12.3997 12.7092 12.6042 12.7092C12.8065 12.7092 12.9718 12.6532 13.106 12.5565C13.2393 12.4605 13.338 12.3275 13.4133 12.1793C13.5626 11.8851 13.6265 11.5155 13.6781 11.2155L13.6783 11.2146C13.6992 11.0828 13.7299 10.8897 13.7706 10.7298C13.7911 10.6494 13.813 10.5816 13.8356 10.5354C13.8468 10.5126 13.8562 10.499 13.8628 10.492C13.8907 10.4954 13.9263 10.5175 13.9727 10.6053C14.0234 10.701 14.0736 10.8501 14.1364 11.0627L14.1367 11.0637C14.1987 11.2637 14.2797 11.5217 14.4226 11.7292C14.5681 11.9404 14.7816 12.1044 15.1042 12.1044C15.7095 12.1044 15.9795 11.647 16.1444 11.3677L16.147 11.3633C16.1472 11.363 16.1473 11.3628 16.1475 11.3626C16.211 11.2601 16.2546 11.1901 16.2922 11.1447C16.3303 11.0987 16.3474 11.0963 16.3542 11.0963C16.4309 11.0963 16.4785 11.1055 16.5198 11.1215C16.563 11.1382 16.6028 11.1635 16.6659 11.2042C16.7497 11.265 16.8547 11.3398 17.0037 11.3986C17.154 11.4578 17.3457 11.4996 17.6042 11.4996H18.8542C19.0599 11.4996 19.2417 11.3272 19.2417 11.1221C19.2417 10.9171 19.0599 10.7447 18.8542 10.7447H17.6042C17.4633 10.7447 17.3733 10.7301 17.303 10.7059C17.2327 10.6818 17.1773 10.6466 17.1052 10.5967L17.1052 10.5967C17.0993 10.5926 17.0933 10.5885 17.0872 10.5843C16.9404 10.4824 16.7375 10.3415 16.3542 10.3415C15.8488 10.3415 15.6213 10.7239 15.4766 10.984C15.3923 11.1268 15.3346 11.2185 15.2775 11.2759C15.2257 11.3281 15.1769 11.3496 15.1042 11.3496C15.1076 11.3496 15.0983 11.3518 15.0766 11.3241C15.0561 11.2979 15.0344 11.2573 15.0118 11.2038C14.9804 11.1296 14.952 11.0429 14.9232 10.955C14.9103 10.9158 14.8974 10.8763 14.8841 10.8376C14.822 10.6175 14.7412 10.3445 14.5903 10.1268C14.4358 9.90385 14.2061 9.73665 13.8542 9.73665C13.678 9.73665 13.5335 9.78511 13.4157 9.87026C13.2989 9.9547 13.2126 10.0721 13.1465 10.204C13.0169 10.4627 12.958 10.7932 12.9068 11.0807L12.9054 11.0888L12.9054 11.0888L12.9051 11.0902C12.8633 11.3533 12.8225 11.5787 12.7676 11.7378C12.7402 11.8176 12.7112 11.8744 12.6814 11.9101C12.653 11.9441 12.6282 11.9544 12.6042 11.9544L12.6041 11.9544C12.6037 11.9544 12.5976 11.9546 12.5847 11.9417C12.5709 11.928 12.5547 11.9041 12.5375 11.8678C12.5032 11.7954 12.4727 11.6906 12.4457 11.5673C12.4041 11.3773 12.3732 11.1568 12.3468 10.9673C12.339 10.9114 12.3315 10.8582 12.3243 10.8093C12.3243 10.8091 12.3243 10.809 12.3242 10.8088L12.3212 10.7858C12.2705 10.4031 12.2171 9.99935 12.0903 9.68995C12.025 9.53084 11.9383 9.3909 11.8175 9.29056C11.6952 9.18897 11.5425 9.13181 11.3542 9.13181C11.1551 9.13181 10.9961 9.2081 10.8709 9.34446C10.7482 9.47805 10.6601 9.66681 10.5923 9.89071C10.4608 10.3247 10.3976 10.9204 10.3276 11.5792L10.3214 11.6375C10.3214 11.6376 10.3213 11.6378 10.3213 11.638C10.3143 11.6971 10.307 11.7596 10.2994 11.8245C10.2732 12.0486 10.2438 12.3012 10.2096 12.5405C10.184 12.7198 10.1561 12.8888 10.1257 13.0309C10.0646 12.7469 10.0103 12.3509 9.96255 11.913C9.8976 11.3171 9.8456 10.653 9.80393 10.1085C9.71038 8.80041 9.63721 7.91197 9.51336 7.35095C9.45154 7.07089 9.3752 6.86268 9.27058 6.72351C9.16209 6.5792 9.02426 6.51087 8.85417 6.51087C8.77655 6.51087 8.70149 6.52234 8.63093 6.55516C8.55988 6.58821 8.49818 6.64069 8.4441 6.71552C8.3384 6.8618 8.25864 7.09838 8.18936 7.46143C8.05027 8.19033 7.94588 9.476 7.80019 11.702L7.80014 11.7028C7.7522 12.5838 7.69216 13.6397 7.61074 14.5008C7.51846 13.3807 7.43903 11.8814 7.37246 10.6247L7.36657 10.5136C7.36657 10.5136 7.36657 10.5135 7.36657 10.5135C7.22081 7.59181 7.11651 5.99941 6.98033 5.13766C6.91258 4.709 6.83536 4.44853 6.73297 4.295C6.68021 4.21589 6.61949 4.16307 6.54894 4.13122C6.47951 4.09988 6.40637 4.0915 6.33335 4.0915C6.25362 4.0915 6.17816 4.10622 6.10835 4.14234C6.03851 4.17847 5.97872 4.23374 5.927 4.30839C5.8254 4.45501 5.75092 4.68247 5.68936 5.00949C5.56588 5.66551 5.48756 6.76492 5.38351 8.53713L5.38351 8.53716C5.34183 9.25304 5.2898 10.1341 5.2222 10.9166C5.16846 11.5387 5.10533 12.0919 5.03128 12.4507C5.00464 12.3484 4.97977 12.2294 4.95658 12.104C4.92928 11.9563 4.90532 11.806 4.88348 11.6691C4.8699 11.5839 4.85715 11.5039 4.84492 11.4329L4.8439 11.426C4.77184 10.938 4.70314 10.4727 4.56989 10.1297C4.50258 9.95647 4.41648 9.80785 4.29965 9.70216C4.18089 9.59472 4.034 9.53504 3.85417 9.53504C3.50905 9.53504 3.28493 9.71607 3.12965 9.95761C2.98601 10.181 2.89652 10.4634 2.81782 10.7118C2.81303 10.7269 2.80828 10.7419 2.80356 10.7567L2.80317 10.7566L2.80159 10.7642C2.78148 10.8614 2.74086 11.0089 2.69285 11.136C2.6688 11.1997 2.64377 11.2559 2.61968 11.2975C2.60762 11.3183 2.59682 11.3336 2.58774 11.3439C2.58586 11.3461 2.5842 11.3478 2.58277 11.3493C2.51159 11.3471 2.47473 11.3341 2.44692 11.3162C2.41458 11.2953 2.38841 11.2648 2.34155 11.2103C2.33712 11.2051 2.3325 11.1998 2.32768 11.1942L2.3277 11.1941L2.32647 11.1928C2.31993 11.1856 2.31318 11.178 2.3062 11.1702C2.23724 11.0932 2.1455 10.9908 2.00775 10.9069C1.85439 10.8134 1.64797 10.7447 1.35417 10.7447H0.3125C0.106721 10.7447 -0.075 10.9171 -0.075 11.1221C-0.075 11.3272 0.106721 11.4996 0.3125 11.4996H1.35417C1.4824 11.4996 1.55097 11.5187 1.60033 11.5474C1.65053 11.5765 1.6878 11.6186 1.74849 11.6872L1.75632 11.6961L1.75633 11.6961C1.75822 11.6982 1.76015 11.7004 1.7621 11.7026C1.82401 11.7725 1.91241 11.8724 2.04361 11.9544C2.1803 12.0398 2.36069 12.1044 2.60417 12.1044C2.91848 12.1044 3.12194 11.938 3.26158 11.7137C3.39618 11.4975 3.47651 11.2198 3.54777 10.9735L3.55114 10.9619C3.55115 10.9618 3.55117 10.9618 3.55119 10.9617C3.59291 10.8203 3.64389 10.6529 3.70185 10.5163C3.73091 10.4479 3.76043 10.3903 3.78963 10.3486C3.79777 10.337 3.8053 10.3274 3.81218 10.3196L7.62226 16.7415ZM17.0625 10.6584C17.0566 10.6543 17.0506 10.6502 17.0446 10.646C16.9011 10.5464 16.714 10.4165 16.3542 10.4165C15.8958 10.4165 15.6875 10.7592 15.5416 11.0213C15.375 11.3036 15.2917 11.4246 15.1042 11.4246C14.9982 11.4246 14.9222 11.1927 14.8507 10.9747C14.8379 10.9355 14.8252 10.8968 14.8125 10.86L17.0625 10.6584ZM17.0625 10.6584C17.2083 10.7592 17.3125 10.8197 17.6042 10.8197H18.8542C19.0209 10.8197 19.1667 10.9608 19.1667 11.1221C19.1667 11.2835 19.0209 11.4246 18.8542 11.4246H17.6042C17.1041 11.4246 16.875 11.2632 16.7083 11.1423L17.0625 10.6584Z" fill="#E62E05" stroke="#E62E05" stroke-width="0.15"/>
</g>
<defs>
<clipPath id="clip0_155_88959">
<rect width="20" height="20" fill="white"/>
</clipPath>
</defs>
</svg>
